<mxfile host="app.diagrams.net" modified="2024-03-26T02:46:25.540Z" agent="Mozilla/5.0 (Windows NT 10.0; Win64; x64) AppleWebKit/537.36 (KHTML, like Gecko) Chrome/122.0.0.0 Safari/537.36 Edg/122.0.0.0" version="24.1.0" etag="m5Cdla5Bkc4yywT9lNUJ" type="github">
  <diagram name="Page-1" id="ZVPf8Pa0kWfYhVz-raMH">
    <mxGraphModel>
      <root>
        <mxCell id="0" />
        <mxCell id="1" parent="0" />
      </root>
    </mxGraphModel>
  </diagram>
</mxfile>
